<svg width="180" height="80" viewBox="0 0 180 80" fill="none" xmlns="http://www.w3.org/2000/svg">
<rect width="180" height="80" rx="10" fill="#FDBDBD"/>
<path d="M13.7224 20.5621C15.6855 22.141 18.4581 23.4039 21.7168 24.3349L21.9687 24.4069L22.1713 24.2408C25.7874 21.2747 30.3221 19.6577 34.999 19.6667H35C39.8601 19.6667 44.3322 21.3744 47.8288 24.2408L48.0314 24.4069L48.2832 24.3349C51.5418 23.4039 54.3145 22.141 56.2776 20.5621C55.885 23.3161 54.3431 25.853 51.9221 27.9558L51.5862 28.2476L51.837 28.6151C54.1253 31.9695 55.3442 35.9381 55.3333 39.9987V40C55.3333 45.3927 53.1911 50.5646 49.3778 54.3778C45.5646 58.1911 40.3927 60.3333 35 60.3333C32.3298 60.3333 29.6857 59.8074 27.2188 58.7855C24.7518 57.7637 22.5103 56.266 20.6222 54.3778C16.8089 50.5646 14.6667 45.3927 14.6667 40C14.6667 35.7698 15.9474 31.8674 18.1632 28.6148L18.4135 28.2474L18.0779 27.9558C15.6569 25.853 14.115 23.3161 13.7224 20.5621ZM52.1667 40C52.1667 35.4471 50.358 31.0807 47.1387 27.8613C43.9193 24.642 39.5529 22.8333 35 22.8333C30.4471 22.8333 26.0807 24.642 22.8613 27.8613C19.642 31.0807 17.8333 35.4471 17.8333 40C17.8333 44.5529 19.642 48.9193 22.8613 52.1387C26.0807 55.358 30.4471 57.1667 35 57.1667C39.5529 57.1667 43.9193 55.358 47.1387 52.1387C50.358 48.9193 52.1667 44.5529 52.1667 40ZM26.125 35.8333V33.5173L31.356 36.1328C31.1952 37.3963 30.0397 38.4583 28.75 38.4583C27.3595 38.4583 26.125 37.2239 26.125 35.8333ZM43.875 35.8333C43.875 37.2239 42.6405 38.4583 41.25 38.4583C39.9603 38.4583 38.8048 37.3963 38.644 36.1328L43.875 33.5173V35.8333ZM35 50.3958C31.6786 50.3958 28.7609 49.0851 26.9562 47.1467L29.1712 44.9317C30.3625 46.3399 32.5661 47.2292 35 47.2292C37.4339 47.2292 39.6375 46.3399 40.8288 44.9317L43.0438 47.1467C41.2391 49.0851 38.3214 50.3958 35 50.3958Z" fill="#807474" stroke="#807474"/>
<path d="M77.0099 36.0909V38.3636H70.4403V36.0909H77.0099ZM71.9318 33.4773H74.9574V43.6477C74.9574 43.9271 75 44.1449 75.0852 44.3011C75.1705 44.4527 75.2888 44.5592 75.4403 44.6207C75.5966 44.6823 75.7765 44.7131 75.9801 44.7131C76.1222 44.7131 76.2642 44.7012 76.4062 44.6776C76.5483 44.6491 76.6572 44.6278 76.733 44.6136L77.2088 46.8651C77.0573 46.9124 76.8442 46.9669 76.5696 47.0284C76.295 47.0947 75.9612 47.1349 75.5682 47.1491C74.839 47.1776 74.1998 47.0805 73.6506 46.858C73.1061 46.6354 72.6823 46.2898 72.3793 45.821C72.0762 45.3523 71.9271 44.7604 71.9318 44.0455V33.4773ZM78.9808 47V36.0909H81.9141V37.9943H82.0277C82.2266 37.3172 82.5604 36.8059 83.0291 36.4602C83.4979 36.1098 84.0376 35.9347 84.6484 35.9347C84.8 35.9347 84.9633 35.9441 85.1385 35.9631C85.3137 35.982 85.4676 36.008 85.6001 36.0412V38.7259C85.4581 38.6832 85.2616 38.6454 85.0107 38.6122C84.7597 38.5791 84.5301 38.5625 84.3217 38.5625C83.8767 38.5625 83.4789 38.6596 83.1286 38.8537C82.7829 39.0431 82.5083 39.3082 82.3047 39.6491C82.1058 39.9901 82.0064 40.383 82.0064 40.8281V47H78.9808ZM91.5856 47.2131C90.4824 47.2131 89.5283 46.9787 88.7234 46.5099C87.9232 46.0365 87.3053 45.3783 86.8697 44.5355C86.4341 43.688 86.2163 42.7055 86.2163 41.5881C86.2163 40.4612 86.4341 39.4763 86.8697 38.6335C87.3053 37.786 87.9232 37.1278 88.7234 36.6591C89.5283 36.1856 90.4824 35.9489 91.5856 35.9489C92.6888 35.9489 93.6405 36.1856 94.4407 36.6591C95.2456 37.1278 95.8659 37.786 96.3015 38.6335C96.7371 39.4763 96.9549 40.4612 96.9549 41.5881C96.9549 42.7055 96.7371 43.688 96.3015 44.5355C95.8659 45.3783 95.2456 46.0365 94.4407 46.5099C93.6405 46.9787 92.6888 47.2131 91.5856 47.2131ZM91.5998 44.8693C92.1017 44.8693 92.5207 44.7273 92.8569 44.4432C93.1931 44.1544 93.4464 43.7614 93.6168 43.2642C93.792 42.767 93.8796 42.2012 93.8796 41.5668C93.8796 40.9323 93.792 40.3665 93.6168 39.8693C93.4464 39.3722 93.1931 38.9792 92.8569 38.6903C92.5207 38.4015 92.1017 38.2571 91.5998 38.2571C91.0932 38.2571 90.667 38.4015 90.3214 38.6903C89.9805 38.9792 89.7224 39.3722 89.5472 39.8693C89.3768 40.3665 89.2915 40.9323 89.2915 41.5668C89.2915 42.2012 89.3768 42.767 89.5472 43.2642C89.7224 43.7614 89.9805 44.1544 90.3214 44.4432C90.667 44.7273 91.0932 44.8693 91.5998 44.8693ZM103.851 47.2131C102.734 47.2131 101.773 46.9763 100.968 46.5028C100.167 46.0246 99.552 45.3617 99.1211 44.5142C98.695 43.6667 98.4819 42.6913 98.4819 41.5881C98.4819 40.4706 98.6973 39.4905 99.1282 38.6477C99.5638 37.8002 100.182 37.1397 100.982 36.6662C101.782 36.188 102.734 35.9489 103.837 35.9489C104.789 35.9489 105.622 36.1217 106.337 36.4673C107.052 36.813 107.618 37.2983 108.034 37.9233C108.451 38.5483 108.681 39.2822 108.723 40.125H105.868C105.788 39.5805 105.575 39.1425 105.229 38.8111C104.888 38.4749 104.441 38.3068 103.887 38.3068C103.418 38.3068 103.008 38.4347 102.658 38.6903C102.312 38.9413 102.042 39.3082 101.848 39.7912C101.654 40.2741 101.557 40.8589 101.557 41.5455C101.557 42.2415 101.652 42.8333 101.841 43.321C102.035 43.8087 102.308 44.1804 102.658 44.4361C103.008 44.6918 103.418 44.8196 103.887 44.8196C104.232 44.8196 104.542 44.7486 104.817 44.6065C105.096 44.4645 105.326 44.2585 105.506 43.9886C105.691 43.714 105.811 43.3849 105.868 43.0014H108.723C108.676 43.8348 108.449 44.5687 108.042 45.2031C107.639 45.8329 107.083 46.3253 106.373 46.6804C105.662 47.0355 104.822 47.2131 103.851 47.2131ZM110.661 51.0909V36.0909H113.643V37.9233H113.778C113.911 37.6297 114.103 37.3314 114.354 37.0284C114.609 36.7206 114.941 36.465 115.348 36.2614C115.76 36.053 116.271 35.9489 116.882 35.9489C117.678 35.9489 118.411 36.1572 119.084 36.5739C119.756 36.9858 120.294 37.6084 120.696 38.4418C121.098 39.2704 121.3 40.3097 121.3 41.5597C121.3 42.7765 121.103 43.804 120.71 44.642C120.322 45.4754 119.792 46.1075 119.119 46.5384C118.452 46.9645 117.704 47.1776 116.875 47.1776C116.288 47.1776 115.788 47.0805 115.376 46.8864C114.969 46.6922 114.635 46.4484 114.375 46.1548C114.115 45.8565 113.916 45.5559 113.778 45.2528H113.686V51.0909H110.661ZM113.622 41.5455C113.622 42.1941 113.712 42.7599 113.892 43.2429C114.072 43.7259 114.332 44.1023 114.673 44.3722C115.014 44.6373 115.429 44.7699 115.916 44.7699C116.409 44.7699 116.825 44.6349 117.166 44.3651C117.507 44.0904 117.765 43.7116 117.94 43.2287C118.12 42.741 118.21 42.1799 118.21 41.5455C118.21 40.9157 118.123 40.3617 117.947 39.8835C117.772 39.4053 117.514 39.0312 117.173 38.7614C116.832 38.4915 116.413 38.3565 115.916 38.3565C115.424 38.3565 115.007 38.4867 114.666 38.7472C114.33 39.0076 114.072 39.3769 113.892 39.8551C113.712 40.3333 113.622 40.8968 113.622 41.5455ZM126.342 32.4545V47H123.317V32.4545H126.342ZM131.877 47.206C131.181 47.206 130.56 47.0852 130.016 46.8438C129.471 46.5975 129.041 46.2353 128.723 45.7571C128.411 45.2741 128.255 44.6728 128.255 43.9531C128.255 43.3471 128.366 42.8381 128.588 42.4261C128.811 42.0142 129.114 41.6828 129.498 41.4318C129.881 41.1809 130.317 40.9915 130.804 40.8636C131.297 40.7358 131.813 40.6458 132.353 40.5938C132.987 40.5275 133.498 40.4659 133.887 40.4091C134.275 40.3475 134.557 40.2576 134.732 40.1392C134.907 40.0208 134.995 39.8456 134.995 39.6136V39.571C134.995 39.1212 134.853 38.7732 134.569 38.527C134.289 38.2808 133.891 38.1577 133.375 38.1577C132.831 38.1577 132.398 38.2784 132.076 38.5199C131.754 38.7566 131.541 39.0549 131.436 39.4148L128.638 39.1875C128.78 38.5246 129.06 37.9517 129.476 37.4688C129.893 36.9811 130.43 36.607 131.088 36.3466C131.751 36.0814 132.518 35.9489 133.39 35.9489C133.996 35.9489 134.576 36.0199 135.13 36.1619C135.688 36.304 136.183 36.5241 136.614 36.8224C137.05 37.1207 137.393 37.5043 137.644 37.973C137.895 38.437 138.02 38.9934 138.02 39.642V47H135.151V45.4872H135.066C134.891 45.8281 134.656 46.1288 134.363 46.3892C134.069 46.6449 133.716 46.8461 133.304 46.9929C132.892 47.1349 132.417 47.206 131.877 47.206ZM132.743 45.1179C133.188 45.1179 133.581 45.0303 133.922 44.8551C134.263 44.6752 134.531 44.4337 134.725 44.1307C134.919 43.8277 135.016 43.4844 135.016 43.1009V41.9432C134.921 42.0047 134.791 42.0616 134.625 42.1136C134.464 42.161 134.282 42.206 134.078 42.2486C133.875 42.2865 133.671 42.322 133.468 42.3551C133.264 42.3835 133.079 42.4096 132.914 42.4332C132.559 42.4853 132.248 42.5682 131.983 42.6818C131.718 42.7955 131.512 42.9493 131.365 43.1435C131.219 43.3329 131.145 43.5696 131.145 43.8537C131.145 44.2656 131.294 44.5805 131.593 44.7983C131.896 45.0114 132.279 45.1179 132.743 45.1179ZM145.297 47.2131C144.179 47.2131 143.218 46.9763 142.413 46.5028C141.613 46.0246 140.997 45.3617 140.566 44.5142C140.14 43.6667 139.927 42.6913 139.927 41.5881C139.927 40.4706 140.143 39.4905 140.574 38.6477C141.009 37.8002 141.627 37.1397 142.427 36.6662C143.227 36.188 144.179 35.9489 145.282 35.9489C146.234 35.9489 147.067 36.1217 147.782 36.4673C148.497 36.813 149.063 37.2983 149.48 37.9233C149.896 38.5483 150.126 39.2822 150.169 40.125H147.314C147.233 39.5805 147.02 39.1425 146.674 38.8111C146.333 38.4749 145.886 38.3068 145.332 38.3068C144.863 38.3068 144.454 38.4347 144.103 38.6903C143.758 38.9413 143.488 39.3082 143.294 39.7912C143.1 40.2741 143.002 40.8589 143.002 41.5455C143.002 42.2415 143.097 42.8333 143.287 43.321C143.481 43.8087 143.753 44.1804 144.103 44.4361C144.454 44.6918 144.863 44.8196 145.332 44.8196C145.678 44.8196 145.988 44.7486 146.262 44.6065C146.542 44.4645 146.771 44.2585 146.951 43.9886C147.136 43.714 147.257 43.3849 147.314 43.0014H150.169C150.121 43.8348 149.894 44.5687 149.487 45.2031C149.084 45.8329 148.528 46.3253 147.818 46.6804C147.108 47.0355 146.267 47.2131 145.297 47.2131ZM157.077 47.2131C155.955 47.2131 154.989 46.9858 154.18 46.5312C153.375 46.072 152.754 45.4233 152.319 44.5852C151.883 43.7424 151.665 42.7457 151.665 41.5952C151.665 40.473 151.883 39.4882 152.319 38.6406C152.754 37.7931 153.368 37.1326 154.158 36.6591C154.954 36.1856 155.887 35.9489 156.957 35.9489C157.676 35.9489 158.346 36.0649 158.967 36.2969C159.592 36.5241 160.136 36.8674 160.6 37.3267C161.069 37.786 161.433 38.3636 161.694 39.0597C161.954 39.7509 162.085 40.5606 162.085 41.4886V42.3196H152.873V40.4446H159.237C159.237 40.009 159.142 39.6231 158.952 39.2869C158.763 38.9508 158.5 38.688 158.164 38.4986C157.833 38.3045 157.447 38.2074 157.006 38.2074C156.547 38.2074 156.14 38.3139 155.785 38.527C155.434 38.7353 155.16 39.017 154.961 39.3722C154.762 39.7225 154.66 40.1132 154.656 40.544V42.3267C154.656 42.8665 154.755 43.3329 154.954 43.7259C155.157 44.1188 155.444 44.4219 155.813 44.6349C156.183 44.848 156.621 44.9545 157.127 44.9545C157.463 44.9545 157.771 44.9072 158.05 44.8125C158.33 44.7178 158.569 44.5758 158.768 44.3864C158.967 44.197 159.118 43.965 159.222 43.6903L162.021 43.875C161.879 44.5473 161.587 45.1345 161.147 45.6364C160.711 46.1335 160.148 46.5218 159.457 46.8011C158.77 47.0758 157.977 47.2131 157.077 47.2131Z" fill="#575050"/>
</svg>
