<svg width="44" height="42" viewBox="0 0 44 42" fill="none" xmlns="http://www.w3.org/2000/svg">
<path d="M0.597445 1.39546C2.56048 2.97437 5.33315 4.23725 8.59181 5.1683L8.8437 5.24027L9.04626 5.07413C12.6624 2.10807 17.1971 0.49112 21.874 0.500038H21.875C26.7351 0.500038 31.2072 2.20775 34.7038 5.07422L34.9064 5.24025L35.1582 5.1683C38.4168 4.23725 41.1895 2.97437 43.1526 1.39546C42.76 4.14949 41.2181 6.68633 38.7971 8.78922L38.4612 9.08097L38.712 9.44848C41.0003 12.8028 42.2192 16.7715 42.2083 20.832V20.8334C42.2083 26.2261 40.0661 31.398 36.2528 35.2112C32.4396 39.0244 27.2677 41.1667 21.875 41.1667C19.2048 41.1667 16.5607 40.6408 14.0938 39.6189C11.6268 38.5971 9.38529 37.0993 7.49716 35.2112C3.68392 31.398 1.54167 26.2261 1.54167 20.8334C1.54167 16.6031 2.8224 12.7008 5.03822 9.44821L5.28854 9.08078L4.95288 8.78922C2.53191 6.68633 0.989954 4.14949 0.597445 1.39546ZM39.0417 20.8334C39.0417 16.2805 37.233 11.9141 34.0137 8.6947C30.7943 5.47533 26.4279 3.6667 21.875 3.6667C17.3221 3.6667 12.9557 5.47533 9.73633 8.6947C6.51696 11.9141 4.70833 16.2805 4.70833 20.8334C4.70833 25.3863 6.51696 29.7527 9.73633 32.972C12.9557 36.1914 17.3221 38 21.875 38C26.4279 38 30.7943 36.1914 34.0137 32.972C37.233 29.7527 39.0417 25.3863 39.0417 20.8334ZM13 16.6667V14.3507L18.231 16.9662C18.0702 18.2297 16.9147 19.2917 15.625 19.2917C14.2345 19.2917 13 18.0572 13 16.6667ZM30.75 16.6667C30.75 18.0572 29.5155 19.2917 28.125 19.2917C26.8353 19.2917 25.6798 18.2297 25.519 16.9662L30.75 14.3507V16.6667ZM21.875 31.2292C18.5536 31.2292 15.6359 29.9185 13.8312 27.9801L16.0462 25.7651C17.2375 27.1733 19.4411 28.0625 21.875 28.0625C24.3089 28.0625 26.5125 27.1733 27.7038 25.7651L29.9188 27.9801C28.1141 29.9185 25.1964 31.2292 21.875 31.2292Z" fill="#807474" stroke="#807474"/>
</svg>
